<svg xmlns="http://www.w3.org/2000/svg" viewBox="0 0 128 128" width="128" height="128">
  <style>
    path { fill: #1a1a1a; }
    @media (prefers-color-scheme: dark) {
      path { fill: #ffffff; }
    }
  </style>
  <path d="M64 16c-8 0-14 6-14 14s6 14 14 14 14-6 14-14-6-14-14-14zm-30 22c-6 3-10 10-8 17 2 7 8 12 15 12l8-12-6-10c-2-3-5-6-9-7zm60 0c-4 1-7 4-9 7l-6 10 8 12c7 0 13-5 15-12 2-7-2-14-8-17zM38 62c-4 2-7 6-8 11l-4 16c2 6 8 10 14 10 3 0 6-1 8-3l6-18-4-12c-3-3-7-5-12-4zm52 0c-5-1-9 1-12 4l-4 12 6 18c2 2 5 3 8 3 6 0 12-4 14-10l-4-16c-1-5-4-9-8-11zM54 72l-8 22c1 5 5 10 10 12 3 1 5 1 8 0 5-2 9-7 10-12l-8-22h-12z"/>
</svg>
